<?xml version="1.0" standalone="no"?><!DOCTYPE svg PUBLIC "-//W3C//DTD SVG 1.1//EN" "http://www.w3.org/Graphics/SVG/1.1/DTD/svg11.dtd"><svg t="1614130404535" class="icon" viewBox="0 0 1024 1024" version="1.1" xmlns="http://www.w3.org/2000/svg" p-id="1186" xmlns:xlink="http://www.w3.org/1999/xlink" width="200" height="200"><defs><style type="text/css"></style></defs><path d="M928 928H96a32 32 0 0 1-32-32V512a32 32 0 0 1 32-32h832a32 32 0 0 1 32 32v384a32 32 0 0 1-32 32zM128 864h768V544H128v320z" fill="#3D6DEB" p-id="1187"></path><path d="M224 640h128v128H224z" fill="#3D6DEB" p-id="1188"></path><path d="M352 800H224a32 32 0 0 1-32-32v-128a32 32 0 0 1 32-32h128a32 32 0 0 1 32 32v128a32 32 0 0 1-32 32z m-96-64h64v-64H256v64zM484.992 608h128v64h-128zM676.992 608h128v64h-128z" fill="#3D6DEB" p-id="1189"></path><path d="M484.992 734.528h128v64h-128zM676.992 734.528h128v64h-128z" fill="#3D6DEB" p-id="1190"></path><path d="M928 544H96a32 32 0 0 1-32-32V128a32 32 0 0 1 32-32h832a32 32 0 0 1 32 32v384a32 32 0 0 1-32 32zM128 480h768V160H128v320z" fill="#3D6DEB" p-id="1191"></path><path d="M224 256h128v128H224z" fill="#3D6DEB" p-id="1192"></path><path d="M352 416H224a32 32 0 0 1-32-32V256a32 32 0 0 1 32-32h128a32 32 0 0 1 32 32v128a32 32 0 0 1-32 32z m-96-64h64V288H256v64zM484.992 224h128v64h-128zM676.992 224h128v64h-128z" fill="#3D6DEB" p-id="1193"></path><path d="M484.992 350.528h128v64h-128zM676.992 350.528h128v64h-128z" fill="#3D6DEB" p-id="1194"></path></svg>